<svg width="32" height="31" viewBox="0 0 32 31" fill="none" xmlns="http://www.w3.org/2000/svg">
<path fill-rule="evenodd" clip-rule="evenodd" d="M16 0C7.16 0 0 7.10429 0 15.8755C0 22.9004 4.58 28.8339 10.94 30.9374C11.74 31.0763 12.04 30.6001 12.04 30.1833C12.04 29.8063 12.02 28.5561 12.02 27.2265C8 27.9608 6.96 26.2541 6.64 25.3611C6.46 24.9047 5.68 23.4958 5 23.1187C4.44 22.8211 3.64 22.0868 4.98 22.067C6.24 22.0471 7.14 23.2179 7.44 23.6942C8.88 26.0954 11.18 25.4207 12.1 25.0039C12.24 23.972 12.66 23.2775 13.12 22.8806C9.56 22.4837 5.84 21.1144 5.84 15.0421C5.84 13.3156 6.46 11.8868 7.48 10.7755C7.32 10.3786 6.76 8.75138 7.64 6.56849C7.64 6.56849 8.98 6.15176 12.04 8.19574C13.32 7.83854 14.68 7.65994 16.04 7.65994C17.4 7.65994 18.76 7.83854 20.04 8.19574C23.1 6.13192 24.44 6.56849 24.44 6.56849C25.32 8.75138 24.76 10.3786 24.6 10.7755C25.62 11.8868 26.24 13.2957 26.24 15.0421C26.24 21.1343 22.5 22.4837 18.94 22.8806C19.52 23.3767 20.02 24.3292 20.02 25.8176C20.02 27.9409 20 29.6475 20 30.1833C20 30.6001 20.3 31.0962 21.1 30.9374C27.42 28.8339 32 22.8806 32 15.8755C32 7.10429 24.84 0 16 0Z" fill="white"/>
</svg>
